<?xml version="1.0" encoding="UTF-8" standalone="no"?>
<!-- Created with Inkscape (http://www.inkscape.org/) -->

<svg
   width="429.89139mm"
   height="67.94976mm"
   viewBox="0 0 429.89138 67.949762"
   version="1.1"
   id="svg8323"
   inkscape:version="1.1.1 (3bf5ae0d25, 2021-09-20)"
   sodipodi:docname="solar-white-small.svg"
   xmlns:inkscape="http://www.inkscape.org/namespaces/inkscape"
   xmlns:sodipodi="http://sodipodi.sourceforge.net/DTD/sodipodi-0.dtd"
   xmlns="http://www.w3.org/2000/svg"
   xmlns:svg="http://www.w3.org/2000/svg">
  <sodipodi:namedview
     id="namedview8325"
     pagecolor="#505050"
     bordercolor="#eeeeee"
     borderopacity="1"
     inkscape:pageshadow="0"
     inkscape:pageopacity="0"
     inkscape:pagecheckerboard="0"
     inkscape:document-units="mm"
     showgrid="false"
     inkscape:zoom="0.45291836"
     inkscape:cx="989.14073"
     inkscape:cy="-155.65719"
     inkscape:window-width="1920"
     inkscape:window-height="991"
     inkscape:window-x="-9"
     inkscape:window-y="-9"
     inkscape:window-maximized="1"
     inkscape:current-layer="layer1" />
  <defs
     id="defs8320">
    <linearGradient
       id="b"
       x1="-828.84003"
       x2="-775.28003"
       gradientUnits="userSpaceOnUse"
       gradientTransform="matrix(-0.99999999,0,0,0.99999999,-262.6924,-522.52162)">
      <stop
         stop-color="#828282"
         offset="0"
         id="stop828" />
      <stop
         stop-color="#fff"
         offset=".24496"
         id="stop830" />
      <stop
         stop-color="#fff"
         offset=".48531"
         id="stop832" />
      <stop
         stop-color="#bababa"
         offset=".62234"
         id="stop834" />
      <stop
         offset=".82854"
         id="stop836" />
      <stop
         stop-color="#fff"
         offset="1"
         id="stop838" />
    </linearGradient>
    <linearGradient
       id="a"
       x1="771.07001"
       x2="833.06"
       gradientUnits="userSpaceOnUse">
      <stop
         offset="0"
         id="stop841" />
      <stop
         stop-color="#fff"
         offset="1"
         id="stop843" />
    </linearGradient>
    <linearGradient
       id="b-4"
       x1="-828.84003"
       x2="-775.28003"
       gradientUnits="userSpaceOnUse">
      <stop
         stop-color="#828282"
         offset="0"
         id="stop4608" />
      <stop
         stop-color="#fff"
         offset=".24496"
         id="stop4610" />
      <stop
         stop-color="#fff"
         offset=".48531"
         id="stop4612" />
      <stop
         stop-color="#bababa"
         offset=".62234"
         id="stop4614" />
      <stop
         offset=".82854"
         id="stop4616" />
      <stop
         stop-color="#fff"
         offset="1"
         id="stop4618" />
    </linearGradient>
    <linearGradient
       id="a-8"
       x1="771.07001"
       x2="833.06"
       gradientUnits="userSpaceOnUse">
      <stop
         offset="0"
         id="stop4621" />
      <stop
         stop-color="#fff"
         offset="1"
         id="stop4623" />
    </linearGradient>
  </defs>
  <g
     inkscape:label="Layer 1"
     inkscape:groupmode="layer"
     id="layer1"
     transform="translate(408.27585,-86.603463)">
    <path
       id="path6780"
       style="fill:#c3e0d2;fill-opacity:1;stroke-width:0;stroke-linecap:butt;stroke-linejoin:miter;stroke-miterlimit:4;stroke-dasharray:none;stroke-opacity:1"
       d="m -302.4682,124.27939 c 0.32773,0.27731 1.09764,-0.17792 2.87699,-0.55694 1.72673,-0.36781 3.33261,-0.0545 5.06905,-0.006 1.78036,0.0499 1.01061,0.0501 3.19516,1.41129 4.04366,2.51963 1.69893,-0.53699 5.80497,-2.12672 0.591,-0.22882 11.46731,-1.81694 12.37816,-1.17152 3.10317,2.1988 5.49835,-2.30481 8.47856,0.43871 2.12976,1.96058 7.38008,1.57443 15.8192,0.0946 4.50397,-0.78979 10.74036,3.5043 15.31689,2.09909 5.00716,-1.53742 10.28189,-1.02599 11.92331,0.60203 1.82031,1.80544 3.5451,3.42013 4.70877,3.01998 6.02347,-2.07135 9.4919,2.07608 13.98105,0.0362 1.90376,-0.86509 6.83819,-2.78756 12.92376,-2.37557 1.27675,0.0864 2.08759,1.20479 3.44837,1.52807 0.99899,0.23733 2.53243,-0.38239 3.5605,0.0119 2.56344,0.9831 5.3825,2.49683 8.35297,2.14768 9.48714,-1.11514 16.59906,5.2177 23.45386,5.28753 2.69928,0.0275 6.06028,0.0499 9.83559,2.80861 5.61126,4.10022 14.42181,3.47649 22.76968,3.44941 5.58971,-0.0181 10.70678,3.2847 16.18919,3.16156 6.649002,-0.14935 13.556322,-2.78116 19.792052,-0.77825 12.759132,4.09822 27.880599,6.4135 35.111555,7.36803 2.983696,0.29087 52.1388143,-0.9658 69.094095,3.82414 H -408.27585 c 0,0 8.76261,-1.73984 15.91876,-6.99741 0.48817,-0.73226 7.131,-2.81649 9.99283,-4.05505 3.12986,-0.80708 7.42926,-0.85292 10.05569,-3.63214 1.01409,-1.308 20.76306,-2.64359 22.28645,-3.21207 2.91901,-1.08929 1.44814,-0.0904 4.04004,-2.48414 0.69227,-0.63934 12.13615,-1.16351 13.18931,-1.98635 1.31993,-1.03126 3.51871,-2.71749 4.48803,-2.61396 3.20762,0.34258 5.20274,-0.66215 7.3045,-1.37041 1.55661,-0.52456 12.0961,-2.58577 13.27333,-3.14038 1.5522,-0.82807 1.4892,-1.46694 5.25871,-0.78216 z"
       sodipodi:nodetypes="cssssssssssssssssssssccccccsssssccc" />
    <g
       id="g1069">
      <g
         id="g1015"
         transform="matrix(0.26458333,0,0,0.26458333,-385.87485,-88.025824)">
        <g
           id="g3548">
          <path
             id="path848-6-6"
             style="fill:#c3e0d2;fill-opacity:1;stroke:none;stroke-width:0.206598;stroke-miterlimit:4;stroke-dasharray:none;stroke-opacity:1"
             d="m 499.46722,694.79598 -0.72568,1.29205 6.68454,7.719 -0.0413,0.0334 22.02812,25.34779 v 17.44001 61.88174 h 11.01507 v -63.62024 l 2.47006,0.47395 0.003,0.0905 4.17317,-1.01086 4.17908,-0.81023 1.26453,-1.77981 -0.0124,-0.34415 3.60286,0.85351 16.77923,6.20273 0.0688,0.13768 10.17727,2.54481 1.64999,-3.09547 0.11813,-0.059 -1.54577,-1.29012 0.005,-0.0334 40.95688,9.83902 c 0.53666,-0.92954 0.942,-1.73653 0.942,-1.73653 l 0.0216,-0.41102 -84.8519,-20.9937 v -0.70011 l 83.05834,20.18147 -31.83962,-31.86321 h -0.005 l -86.64364,-25.26132 24.41367,27.88475 v 1.24093 l -25.75097,-29.51506 -1.2665,-0.36974 c -0.032,0.0349 -0.0764,0.0962 -0.0885,0.10416 l -0.1515,-0.17306 z" />
          <path
             id="path848-6-6-6"
             style="fill:#c3e0d2;fill-opacity:1;stroke:none;stroke-width:0.206598;stroke-miterlimit:4;stroke-dasharray:none;stroke-opacity:1"
             d="m 617.07486,729.30372 -0.72568,1.29209 6.68455,7.71899 -0.0413,0.0334 22.02812,25.3478 v 17.44 61.88174 h 11.01506 v -63.62022 l 2.47007,0.47395 0.003,0.0905 4.17318,-1.01085 4.17907,-0.81023 1.26454,-1.7798 -0.0124,-0.34417 3.60285,0.85352 16.77922,6.20272 0.0689,0.13768 10.17726,2.54482 1.65,-3.09546 0.11797,-0.059 -1.54575,-1.29011 0.005,-0.0334 40.95688,9.83901 c 0.53666,-0.92953 0.942,-1.73652 0.942,-1.73652 l 0.0216,-0.41103 -84.85188,-20.99369 v -0.70011 l 83.05834,20.18148 -31.83964,-31.86321 h -0.005 l -86.64364,-25.26132 24.41367,27.88474 v 1.24094 l -25.75095,-29.51508 -1.26652,-0.36972 c -0.032,0.0349 -0.0764,0.0962 -0.0885,0.10416 l -0.1515,-0.17307 z" />
          <path
             id="path848-6-6-3-8-9"
             style="fill:#c3e0d2;fill-opacity:1;stroke:none;stroke-width:0.206598;stroke-miterlimit:4;stroke-dasharray:none;stroke-opacity:1"
             d="m 381.448,660.01621 -0.72568,1.29207 6.68455,7.71899 -0.0413,0.0334 22.02812,25.3478 v 17.44 88.44283 h 11.01506 v -90.18128 l 2.47007,0.47397 0.003,0.0905 4.17317,-1.01085 4.17906,-0.81023 1.26455,-1.77979 -0.0124,-0.34417 3.60285,0.85353 16.77923,6.20271 0.0688,0.13769 10.17729,2.54481 1.64999,-3.09546 0.11812,-0.059 -1.54577,-1.29009 0.005,-0.0334 40.95687,9.839 c 0.53668,-0.92953 0.94202,-1.73652 0.94202,-1.73652 l 0.0216,-0.41102 -84.85189,-20.9937 v -0.70012 l 83.05834,20.18148 -31.83962,-31.86321 h -0.005 l -86.64363,-25.26132 24.41363,27.88474 v 1.24094 l -25.75095,-29.51506 -1.26649,-0.36974 c -0.032,0.0349 -0.0764,0.0962 -0.0885,0.10416 l -0.1515,-0.17308 z"
             sodipodi:nodetypes="ccccccccccccccccccccccccccccccccccccccc" />
          <path
             id="path848-6-6-1"
             style="fill:#c3e0d2;fill-opacity:1;stroke:none;stroke-width:0.206598;stroke-miterlimit:4;stroke-dasharray:none;stroke-opacity:1"
             d="m 546.48326,744.88977 -0.72568,1.29207 6.68455,7.71899 -0.0413,0.0334 22.02814,25.34779 v 17.44001 61.88175 h 11.01506 v -63.62025 l 2.47007,0.47397 0.003,0.0905 4.17317,-1.01084 4.17908,-0.81024 1.26453,-1.77978 -0.0124,-0.34417 3.60287,0.85351 16.77921,6.20273 0.0689,0.13768 10.17728,2.54482 1.64999,-3.09546 0.11797,-0.059 -1.54575,-1.2901 0.005,-0.0334 40.95688,9.839 c 0.53668,-0.92954 0.94202,-1.73653 0.94202,-1.73653 l 0.0216,-0.41102 -84.85189,-20.9937 v -0.70009 l 83.05832,20.18146 -31.8396,-31.8632 h -0.005 l -86.64362,-25.26133 24.41365,27.88474 v 1.24094 l -25.75096,-29.51507 -1.26651,-0.36973 c -0.032,0.0349 -0.0764,0.0962 -0.0885,0.10416 l -0.15151,-0.17307 z" />
          <path
             id="path848-6-6-3-8-9-1"
             style="fill:#c3e0d2;fill-opacity:1;stroke:none;stroke-width:0.206598;stroke-miterlimit:4;stroke-dasharray:none;stroke-opacity:1"
             d="m 428.46404,710.11001 -0.72566,1.29207 6.68453,7.719 -0.0413,0.0334 22.02814,25.34778 v 17.44 61.88175 h 11.01504 v -63.62023 l 2.47009,0.47395 0.003,0.0905 4.17318,-1.01085 4.17907,-0.81023 1.26454,-1.7798 -0.0124,-0.34417 3.60285,0.85352 16.77921,6.20272 0.0689,0.13768 10.17727,2.54482 1.64999,-3.09547 0.11797,-0.059 -1.54576,-1.2901 0.005,-0.0334 40.95687,9.839 c 0.53667,-0.92954 0.94202,-1.73653 0.94202,-1.73653 l 0.0216,-0.41102 -84.85188,-20.99368 v -0.70013 l 83.05833,20.18149 -31.83961,-31.86322 h -0.005 l -86.64362,-25.26131 24.41364,27.88475 v 1.24092 l -25.75094,-29.51507 -1.26652,-0.36972 c -0.032,0.0349 -0.0764,0.0962 -0.0885,0.10416 l -0.1515,-0.17306 z" />
        </g>
      </g>
    </g>
  </g>
</svg>
