<?xml version="1.0" encoding="UTF-8" standalone="no"?>
<!-- Created with Inkscape (http://www.inkscape.org/) -->

<svg
   width="534.85315mm"
   height="104.91286mm"
   viewBox="0 0 534.85315 104.91286"
   version="1.1"
   id="svg8323"
   inkscape:version="1.1.1 (3bf5ae0d25, 2021-09-20)"
   sodipodi:docname="windmills-green.svg"
   xmlns:inkscape="http://www.inkscape.org/namespaces/inkscape"
   xmlns:sodipodi="http://sodipodi.sourceforge.net/DTD/sodipodi-0.dtd"
   xmlns="http://www.w3.org/2000/svg"
   xmlns:svg="http://www.w3.org/2000/svg">
  <sodipodi:namedview
     id="namedview8325"
     pagecolor="#505050"
     bordercolor="#eeeeee"
     borderopacity="1"
     inkscape:pageshadow="0"
     inkscape:pageopacity="0"
     inkscape:pagecheckerboard="0"
     inkscape:document-units="mm"
     showgrid="false"
     inkscape:zoom="0.64052329"
     inkscape:cx="919.56063"
     inkscape:cy="145.9744"
     inkscape:window-width="1920"
     inkscape:window-height="991"
     inkscape:window-x="-9"
     inkscape:window-y="-9"
     inkscape:window-maximized="1"
     inkscape:current-layer="layer1" />
  <defs
     id="defs8320" />
  <g
     inkscape:label="Layer 1"
     inkscape:groupmode="layer"
     id="layer1"
     transform="translate(316.37082,-50.224687)">
    <g
       id="g6478"
       style="fill:#94b5a5;fill-opacity:1;stroke-width:5.14506;stroke-miterlimit:4;stroke-dasharray:none;stroke-opacity:1"
       transform="matrix(0.24113749,-0.00558061,-0.00558061,-0.24113749,-343.20362,125.12792)">
      <path
         id="path846-8"
         style="fill:#94b5a5;fill-opacity:1;stroke-width:5.14506;stroke-miterlimit:4;stroke-dasharray:none;stroke-opacity:1"
         d="m 447.88899,300.25736 c -0.23365,-0.008 -0.54686,-0.10323 -0.9081,-0.2058 -1.43239,-0.41161 -5.95904,-8.70908 -15.08024,-26.88563 -9.13767,-18.17655 -23.05151,-40.20574 -26.2785,-46.92316 -3.227,-6.73388 -2.53396,-10.78141 -3.43949,-15.57415 -0.83968,-4.51121 -3.54147,-9.49773 -3.86911,-10.09209 l -0.0823,-0.29069 c -0.149,0.038 -0.29508,0.0716 -0.43476,0.0978 -0.20574,0.0385 -0.40601,0.0522 -0.59684,0.0489 -1.84468,-0.0316 -2.97127,-1.83166 -2.97127,-1.83166 0,0 0.0854,-0.10866 0.21609,-0.29841 l -0.0823,-0.0489 c 0,0 -9.40263,0.13319 -30.31225,-1.38146 -20.92608,-1.49825 -30.39303,-3.29285 -51.12154,-4.52767 -20.71204,-1.23482 -30.31071,-1.43239 -29.96496,-3.29285 0.32929,-1.844 25.7177,-0.47952 43.00517,-0.54538 17.28748,-0.0659 35.15172,-1.87641 41.85268,-1.36602 1.83793,0.13945 4.00957,0.59167 6.34131,1.1705 6.5e-4,2e-4 0.006,9.4e-4 0.008,0.003 0.41534,0.11656 6.13991,1.13727 11.66647,2.11463 l -0.0386,-0.96728 5.84224,0.27012 v -0.0386 h -0.0283 l 0.0128,-0.22896 -8.57685,-228.030052 13.58302,-0.06688 2.46964,228.030062 0.19808,0.11576 c 2.83021,-4.24778 18.14197,-27.15009 31.69371,-47.03892 15.03187,-22.01272 31.36391,-48.025231 33.14205,-46.856268 1.77814,1.168963 -13.38545,24.778208 -26.34283,46.725068 -12.97384,21.94685 -10.43988,20.71204 -15.98833,28.81246 -5.54846,8.10042 -7.75313,8.43022 -12.82413,14.60432 -5.07099,6.1741 -5.82937,7.96716 -5.82937,7.96716 l -0.16465,0.22896 0.43477,0.32413 0.0669,3.70446 c 0,0 -0.18987,0.10259 -0.28813,0.15693 l 0.018,0.0334 c 0,0 7.95276,15.72183 14.60432,31.84035 6.66802,16.11851 27.03329,60.98363 29.15718,65.85705 1.59063,3.64982 1.61171,4.40783 0.91325,4.38618 z m -45.39505,-106.67042 -3.96686,-2.97129 -0.52738,-0.38845 z m -4.77464,-3.56554 v -0.003 c 0,0 -0.056,-0.006 -0.0617,-0.008 0.01,0.002 0.0571,0.01 0.0617,0.0102 z" />
      <path
         id="path846-8-5-5"
         style="fill:#94b5a5;fill-opacity:1;stroke-width:5.14506;stroke-miterlimit:4;stroke-dasharray:none;stroke-opacity:1"
         d="m 534.5195,177.80239 7.49485,-0.17345 -1.97499,-227.312269 -13.56977,0.56173 z" />
      <path
         id="path5833"
         style="fill:#94b5a5;fill-opacity:1;stroke-width:5.14506;stroke-miterlimit:4;stroke-dasharray:none;stroke-opacity:1"
         d="m 655.31953,177.0877 c -0.10504,-0.20884 -0.32256,-0.45401 -0.56679,-0.73919 -0.97306,-1.12871 -10.40401,-1.76921 -30.72786,-2.45027 -20.3308,-0.69598 -46.15786,-4.11709 -53.60869,-4.23809 -7.46576,-0.11415 -10.85113,2.20656 -15.58284,3.38888 -4.44845,1.1244 -10.10706,0.75811 -10.78392,0.70917 l -0.29868,0.046 c -0.0277,-0.15129 -0.0593,-0.29798 -0.0938,-0.43584 -0.0512,-0.20291 -0.12311,-0.39049 -0.20608,-0.56237 -0.80035,-1.66216 -2.90541,-1.93144 -2.90541,-1.93144 0,0 -0.0629,0.12101 -0.18041,0.31925 l -0.0773,-0.0526 c 0,0 -3.81409,-8.59666 -13.93609,-26.95388 -10.11401,-18.37904 -15.70259,-26.22504 -25.49467,-44.534829 -9.78522,-18.294858 -13.9805,-26.930512 -15.52562,-25.83827 -1.53705,1.070404 10.32254,23.557609 17.49394,39.286189 7.1714,15.72864 12.99911,32.71105 16.26563,38.58359 0.89546,1.61094 2.21458,3.39348 3.71563,5.26911 4.6e-4,5e-4 0.005,0.008 0.006,0.009 0.27966,0.32842 3.60041,5.09871 6.79981,9.70931 l 0.99255,1.45387 1.78953,2.51006 2.24065,3.13716 -0.0983,5.62981 -0.26614,0.1146 c -2.85763,4.64714 -17.03986,27.78333 -29.32366,48.22559 -13.70491,22.86019 -30.49916,48.57499 -28.6937,49.70099 1.80548,1.12599 16.90654,-22.52102 31.41939,-43.46956 14.50598,-20.96348 14.44198,-18.14567 19.47815,-26.57332 5.03618,-8.42765 4.41431,-10.56832 7.90064,-17.75654 3.48636,-7.18822 4.7971,-8.62622 4.7971,-8.62622 l 0.13987,-0.24713 0.47756,0.26118 3.3906,-1.49039 c 0,0 0.0145,-0.2136 0.0227,-0.32555 l 0.0377,9.1e-4 c 0,0 17.60699,0.647 35.02865,-0.0541 17.42855,-0.68615 66.69391,-0.95507 72.00852,-1.06458 3.98023,-0.082 4.67851,-0.38056 4.36668,-1.00586 z m -115.86988,3.39153 -4.3576,-2.36206 -0.57255,-0.31478 z m -5.23581,-2.84594 -0.002,7.8e-4 c 0,0 -0.03,-0.0468 -0.0342,-0.0512 0.006,0.008 0.0345,0.0456 0.0363,0.0503 z"
         sodipodi:nodetypes="cccccccccccccccscsccccccccscsscccccccscccccccccsc" />
      <path
         id="path846-8-5-5-6"
         style="fill:#94b5a5;fill-opacity:1;stroke-width:5.14506;stroke-miterlimit:4;stroke-dasharray:none;stroke-opacity:1"
         d="m 666.52426,133.31923 6.0958,-0.14107 -1.60632,-184.880394 -11.03673,0.456873 z" />
      <path
         id="path5833-8"
         style="fill:#94b5a5;fill-opacity:1;stroke-width:5.14506;stroke-miterlimit:4;stroke-dasharray:none;stroke-opacity:1"
         d="m 735.86926,198.30011 c 0.057,-0.18138 0.069,-0.44768 0.088,-0.75247 0.0716,-1.20995 -5.06929,-6.92654 -16.54406,-18.83783 -11.47036,-11.92394 -24.6044,-28.55195 -28.88401,-32.8436 -4.29221,-4.2961 -7.58257,-4.85966 -11.01371,-6.85028 -3.23302,-1.86395 -6.32776,-5.28342 -6.69504,-5.69543 l -0.20038,-0.14234 c 0.0695,-0.10399 0.13421,-0.20749 0.19215,-0.30751 0.0851,-0.1474 0.14938,-0.29762 0.19833,-0.44493 0.47458,-1.42342 -0.60134,-2.77312 -0.60134,-2.77312 0,0 -0.10527,0.035 -0.28615,0.0841 l -0.0153,-0.0745 c 0,0 2.64434,-7.1776 7.13705,-23.62482 4.50973,-16.455421 5.69325,-24.200221 10.35162,-40.432851 4.65392,-16.22002 7.09789,-23.636325 5.57742,-23.874252 -1.5034,-0.246101 -7.3218,19.595662 -12.04724,32.837292 -4.72548,13.24165 -10.9454,26.453761 -12.36603,31.731401 -0.39005,1.4474 -0.63008,3.23496 -0.81667,5.17992 -2e-5,5.5e-4 -0.002,0.007 -0.002,0.009 -0.0229,0.35009 -0.78739,5.01521 -1.53227,9.51838 l -0.24442,1.41075 -0.37766,2.47862 -0.46966,3.10015 -3.24679,3.22974 -0.22023,-0.0839 c -4.30035,1.09308 -25.6839,6.5604 -44.43341,11.53111 -20.94864,5.57667 -45.31734,11.06906 -44.90161,12.749 0.41575,1.67994 22.6249,-3.56495 42.96205,-7.56831 20.34161,-4.01597 18.70791,-2.40781 26.42134,-4.47293 7.71344,-2.06512 8.56326,-3.66668 14.67008,-5.88651 6.10683,-2.21982 7.6864,-2.31644 7.6864,-2.31644 l 0.22163,-0.065 0.13073,0.42296 2.82302,1.05108 c 0,0 0.12945,-0.11646 0.19769,-0.17712 l 0.0215,0.0219 c 0,0 9.90855,10.35227 20.47268,19.81282 10.55967,9.47317 39.46231,37.22598 42.62586,40.17289 2.36926,2.207 2.94588,2.42838 3.11814,1.88681 z m -69.54075,-63.66322 -1.20485,-3.84711 -0.1558,-0.50805 z m -1.44323,-4.62701 -0.002,-7e-4 c 0,0 0.009,-0.0443 0.009,-0.0493 -10e-4,0.008 -0.006,0.0462 -0.007,0.0499 z"
         sodipodi:nodetypes="cccccccccccccccscsccccccccscsscccccccscccccccccsc" />
    </g>
    <path
       id="path6780"
       style="fill:#94b5a5;fill-opacity:1;stroke-width:0;stroke-linecap:butt;stroke-linejoin:miter;stroke-miterlimit:4;stroke-dasharray:none;stroke-opacity:1"
       d="m -315.53365,116.26646 c 2.41623,-0.0264 7.74038,0.39125 8.92709,2.04483 1.03844,1.447 1.01061,0.0501 3.19516,1.41129 4.04366,2.51963 2.52508,2.97414 6.63112,1.38441 0.591,-0.22882 4.65159,-1.19733 5.56244,-0.55191 3.10317,2.1988 4.87874,-0.44598 7.85895,2.29754 2.12976,1.96058 7.38008,1.57443 15.8192,0.0946 4.50397,-0.78979 10.74036,3.5043 15.31689,2.09909 5.00716,-1.53742 10.28189,-1.02599 11.92331,0.60203 1.82031,1.80544 3.5451,3.42013 4.70877,3.01998 6.02347,-2.07135 9.4919,2.07608 13.98105,0.0362 1.90376,-0.86509 6.83819,-2.78756 12.92376,-2.37557 1.27675,0.0864 2.08759,1.20479 3.44837,1.52807 0.99899,0.23733 2.53243,-0.38239 3.5605,0.0119 2.56344,0.9831 5.3825,2.49683 8.35297,2.14768 9.48714,-1.11514 16.59906,5.2177 23.45386,5.28753 2.69928,0.0275 6.06028,0.0499 9.83559,2.80861 5.61126,4.10022 14.42181,3.47649 22.76968,3.44941 5.58971,-0.0181 10.70678,3.2847 16.18919,3.16156 6.649,-0.14935 13.55632,-2.78116 19.79205,-0.77825 12.759132,4.09822 27.880599,6.4135 35.111555,7.36803 17.70843,0.97666 38.622126,2.36065 53.46706,1.30819 14.2594649,-1.01095 28.339944,0.43085 42.757047,-1.30819 3.664334,-0.465 8.332465,-1.31361 12.988354,-2.88045 7.198569,-2.42251 17.121534,2.42824 24.467954,1.18139 7.600101,-1.28991 14.070269,-2.1494 16.479097,-3.60754 9.129972,-5.52661 20.095173,-1.43734 23.633703,-3.11763 3.47792,-1.6515 11.56868,-1.5435 19.65565,-2.57194 6.0921,-0.77475 12.88193,3.5307 17.57758,4.29718 4.66766,0.76192 9.53381,1.20017 14.96549,-0.4191 2.89467,-0.86295 5.60813,-3.09816 6.82439,-4.22972 1.59819,-1.48688 5.7162,1.07499 7.93905,0.52504 1.60469,-0.39702 3.48681,-0.45658 4.99556,-0.51108 1.66552,-0.0601 2.47272,-2.46867 3.29489,-2.67167 2.58798,-0.63901 6.26046,0.21834 9.83713,-0.12248 3.60799,-0.3438 7.12355,-1.88128 10.51977,-1.45985 9.95168,1.23487 15.25174,0.81478 15.25174,0.81478 v 18.59721 h -534.85314 v -38.83492 c 0,0 0.49199,-0.0324 0.83717,-0.0362 z"
       sodipodi:nodetypes="sssssssssssssssssssscscssssssssscsssccccs" />
  </g>
</svg>
