<?xml version="1.0" encoding="UTF-8" standalone="no"?>
<!-- Created with Inkscape (http://www.inkscape.org/) -->

<svg
   width="534.85315mm"
   height="104.91286mm"
   viewBox="0 0 534.85315 104.91286"
   version="1.1"
   id="svg8323"
   inkscape:version="1.1.1 (3bf5ae0d25, 2021-09-20)"
   sodipodi:docname="windmills.svg"
   xmlns:inkscape="http://www.inkscape.org/namespaces/inkscape"
   xmlns:sodipodi="http://sodipodi.sourceforge.net/DTD/sodipodi-0.dtd"
   xmlns="http://www.w3.org/2000/svg"
   xmlns:svg="http://www.w3.org/2000/svg">
  <sodipodi:namedview
     id="namedview8325"
     pagecolor="#505050"
     bordercolor="#eeeeee"
     borderopacity="1"
     inkscape:pageshadow="0"
     inkscape:pageopacity="0"
     inkscape:pagecheckerboard="0"
     inkscape:document-units="mm"
     showgrid="false"
     inkscape:zoom="0.64052329"
     inkscape:cx="919.56063"
     inkscape:cy="145.9744"
     inkscape:window-width="1920"
     inkscape:window-height="991"
     inkscape:window-x="-9"
     inkscape:window-y="-9"
     inkscape:window-maximized="1"
     inkscape:current-layer="layer1" />
  <defs
     id="defs8320" />
  <g
     inkscape:label="Layer 1"
     inkscape:groupmode="layer"
     id="layer1"
     transform="translate(316.37082,-50.224687)">
    <g
       id="g6478"
       style="fill:#e6ede9;fill-opacity:1;stroke-width:5.14506;stroke-miterlimit:4;stroke-dasharray:none;stroke-opacity:1"
       transform="matrix(-0.24113749,-0.00558061,0.00558061,-0.24113749,245.31512,125.12792)">
      <path
         id="path846-8"
         style="fill:#e6ede9;fill-opacity:1;stroke-width:5.14506;stroke-miterlimit:4;stroke-dasharray:none;stroke-opacity:1"
         d="m 447.88899,300.25736 c -0.23365,-0.008 -0.54686,-0.10323 -0.9081,-0.2058 -1.43239,-0.41161 -5.95904,-8.70908 -15.08024,-26.88563 -9.13767,-18.17655 -23.05151,-40.20574 -26.2785,-46.92316 -3.227,-6.73388 -2.53396,-10.78141 -3.43949,-15.57415 -0.83968,-4.51121 -3.54147,-9.49773 -3.86911,-10.09209 l -0.0823,-0.29069 c -0.149,0.038 -0.29508,0.0716 -0.43476,0.0978 -0.20574,0.0385 -0.40601,0.0522 -0.59684,0.0489 -1.84468,-0.0316 -2.97127,-1.83166 -2.97127,-1.83166 0,0 0.0854,-0.10866 0.21609,-0.29841 l -0.0823,-0.0489 c 0,0 -9.40263,0.13319 -30.31225,-1.38146 -20.92608,-1.49825 -30.39303,-3.29285 -51.12154,-4.52767 -20.71204,-1.23482 -30.31071,-1.43239 -29.96496,-3.29285 0.32929,-1.844 25.7177,-0.47952 43.00517,-0.54538 17.28748,-0.0659 35.15172,-1.87641 41.85268,-1.36602 1.83793,0.13945 4.00957,0.59167 6.34131,1.1705 6.5e-4,2e-4 0.006,9.4e-4 0.008,0.003 0.41534,0.11656 6.13991,1.13727 11.66647,2.11463 l -0.0386,-0.96728 5.84224,0.27012 v -0.0386 h -0.0283 l 0.0128,-0.22896 -8.57685,-228.030052 13.58302,-0.06688 2.46964,228.030062 0.19808,0.11576 c 2.83021,-4.24778 18.14197,-27.15009 31.69371,-47.03892 15.03187,-22.01272 31.36391,-48.025231 33.14205,-46.856268 1.77814,1.168963 -13.38545,24.778208 -26.34283,46.725068 -12.97384,21.94685 -10.43988,20.71204 -15.98833,28.81246 -5.54846,8.10042 -7.75313,8.43022 -12.82413,14.60432 -5.07099,6.1741 -5.82937,7.96716 -5.82937,7.96716 l -0.16465,0.22896 0.43477,0.32413 0.0669,3.70446 c 0,0 -0.18987,0.10259 -0.28813,0.15693 l 0.018,0.0334 c 0,0 7.95276,15.72183 14.60432,31.84035 6.66802,16.11851 27.03329,60.98363 29.15718,65.85705 1.59063,3.64982 1.61171,4.40783 0.91325,4.38618 z m -45.39505,-106.67042 -3.96686,-2.97129 -0.52738,-0.38845 z m -4.77464,-3.56554 v -0.003 c 0,0 -0.056,-0.006 -0.0617,-0.008 0.01,0.002 0.0571,0.01 0.0617,0.0102 z" />
      <path
         id="path846-8-5-5"
         style="fill:#e6ede9;fill-opacity:1;stroke-width:5.14506;stroke-miterlimit:4;stroke-dasharray:none;stroke-opacity:1"
         d="m 534.5195,177.80239 7.49485,-0.17345 -1.97499,-227.312269 -13.56977,0.56173 z" />
      <path
         id="path5833"
         style="fill:#e6ede9;fill-opacity:1;stroke-width:5.14506;stroke-miterlimit:4;stroke-dasharray:none;stroke-opacity:1"
         d="m 655.31953,177.0877 c -0.10504,-0.20884 -0.32256,-0.45401 -0.56679,-0.73919 -0.97306,-1.12871 -10.40401,-1.76921 -30.72786,-2.45027 -20.3308,-0.69598 -46.15786,-4.11709 -53.60869,-4.23809 -7.46576,-0.11415 -10.85113,2.20656 -15.58284,3.38888 -4.44845,1.1244 -10.10706,0.75811 -10.78392,0.70917 l -0.29868,0.046 c -0.0277,-0.15129 -0.0593,-0.29798 -0.0938,-0.43584 -0.0512,-0.20291 -0.12311,-0.39049 -0.20608,-0.56237 -0.80035,-1.66216 -2.90541,-1.93144 -2.90541,-1.93144 0,0 -0.0629,0.12101 -0.18041,0.31925 l -0.0773,-0.0526 c 0,0 -3.81409,-8.59666 -13.93609,-26.95388 -10.11401,-18.37904 -15.70259,-26.22504 -25.49467,-44.534829 -9.78522,-18.294858 -13.9805,-26.930512 -15.52562,-25.83827 -1.53705,1.070404 10.32254,23.557609 17.49394,39.286189 7.1714,15.72864 12.99911,32.71105 16.26563,38.58359 0.89546,1.61094 2.21458,3.39348 3.71563,5.26911 4.6e-4,5e-4 0.005,0.008 0.006,0.009 0.27966,0.32842 3.60041,5.09871 6.79981,9.70931 l 0.99255,1.45387 1.78953,2.51006 2.24065,3.13716 -0.0983,5.62981 -0.26614,0.1146 c -2.85763,4.64714 -17.03986,27.78333 -29.32366,48.22559 -13.70491,22.86019 -30.49916,48.57499 -28.6937,49.70099 1.80548,1.12599 16.90654,-22.52102 31.41939,-43.46956 14.50598,-20.96348 14.44198,-18.14567 19.47815,-26.57332 5.03618,-8.42765 4.41431,-10.56832 7.90064,-17.75654 3.48636,-7.18822 4.7971,-8.62622 4.7971,-8.62622 l 0.13987,-0.24713 0.47756,0.26118 3.3906,-1.49039 c 0,0 0.0145,-0.2136 0.0227,-0.32555 l 0.0377,9.1e-4 c 0,0 17.60699,0.647 35.02865,-0.0541 17.42855,-0.68615 66.69391,-0.95507 72.00852,-1.06458 3.98023,-0.082 4.67851,-0.38056 4.36668,-1.00586 z m -115.86988,3.39153 -4.3576,-2.36206 -0.57255,-0.31478 z m -5.23581,-2.84594 -0.002,7.8e-4 c 0,0 -0.03,-0.0468 -0.0342,-0.0512 0.006,0.008 0.0345,0.0456 0.0363,0.0503 z"
         sodipodi:nodetypes="cccccccccccccccscsccccccccscsscccccccscccccccccsc" />
      <path
         id="path846-8-5-5-6"
         style="fill:#e6ede9;fill-opacity:1;stroke-width:5.14506;stroke-miterlimit:4;stroke-dasharray:none;stroke-opacity:1"
         d="m 666.52426,133.31923 6.0958,-0.14107 -1.60632,-184.880394 -11.03673,0.456873 z" />
      <path
         id="path5833-8"
         style="fill:#e6ede9;fill-opacity:1;stroke-width:5.14506;stroke-miterlimit:4;stroke-dasharray:none;stroke-opacity:1"
         d="m 735.86926,198.30011 c 0.057,-0.18138 0.069,-0.44768 0.088,-0.75247 0.0716,-1.20995 -5.06929,-6.92654 -16.54406,-18.83783 -11.47036,-11.92394 -24.6044,-28.55195 -28.88401,-32.8436 -4.29221,-4.2961 -7.58257,-4.85966 -11.01371,-6.85028 -3.23302,-1.86395 -6.32776,-5.28342 -6.69504,-5.69543 l -0.20038,-0.14234 c 0.0695,-0.10399 0.13421,-0.20749 0.19215,-0.30751 0.0851,-0.1474 0.14938,-0.29762 0.19833,-0.44493 0.47458,-1.42342 -0.60134,-2.77312 -0.60134,-2.77312 0,0 -0.10527,0.035 -0.28615,0.0841 l -0.0153,-0.0745 c 0,0 2.64434,-7.1776 7.13705,-23.62482 4.50973,-16.455421 5.69325,-24.200221 10.35162,-40.432851 4.65392,-16.22002 7.09789,-23.636325 5.57742,-23.874252 -1.5034,-0.246101 -7.3218,19.595662 -12.04724,32.837292 -4.72548,13.24165 -10.9454,26.453761 -12.36603,31.731401 -0.39005,1.4474 -0.63008,3.23496 -0.81667,5.17992 -2e-5,5.5e-4 -0.002,0.007 -0.002,0.009 -0.0229,0.35009 -0.78739,5.01521 -1.53227,9.51838 l -0.24442,1.41075 -0.37766,2.47862 -0.46966,3.10015 -3.24679,3.22974 -0.22023,-0.0839 c -4.30035,1.09308 -25.6839,6.5604 -44.43341,11.53111 -20.94864,5.57667 -45.31734,11.06906 -44.90161,12.749 0.41575,1.67994 22.6249,-3.56495 42.96205,-7.56831 20.34161,-4.01597 18.70791,-2.40781 26.42134,-4.47293 7.71344,-2.06512 8.56326,-3.66668 14.67008,-5.88651 6.10683,-2.21982 7.6864,-2.31644 7.6864,-2.31644 l 0.22163,-0.065 0.13073,0.42296 2.82302,1.05108 c 0,0 0.12945,-0.11646 0.19769,-0.17712 l 0.0215,0.0219 c 0,0 9.90855,10.35227 20.47268,19.81282 10.55967,9.47317 39.46231,37.22598 42.62586,40.17289 2.36926,2.207 2.94588,2.42838 3.11814,1.88681 z m -69.54075,-63.66322 -1.20485,-3.84711 -0.1558,-0.50805 z m -1.44323,-4.62701 -0.002,-7e-4 c 0,0 0.009,-0.0443 0.009,-0.0493 -10e-4,0.008 -0.006,0.0462 -0.007,0.0499 z"
         sodipodi:nodetypes="cccccccccccccccscsccccccccscsscccccccscccccccccsc" />
    </g>
    <path
       id="path6780"
       style="fill:#e6ede9;fill-opacity:1;stroke-width:0;stroke-linecap:butt;stroke-linejoin:miter;stroke-miterlimit:4;stroke-dasharray:none;stroke-opacity:1"
       d="m 2018.3281,251.94922 c -9.1322,-0.0999 -29.255,1.47875 -33.7402,7.72851 -3.9248,5.46898 -3.8196,0.18937 -12.0762,5.33399 -15.2831,9.52301 -9.5436,11.24085 -25.0625,5.23242 -2.2337,-0.86483 -17.5808,-4.52532 -21.0234,-2.08594 -11.7285,8.31043 -18.4393,-1.68561 -29.7031,8.6836 -8.0495,7.41006 -27.8932,5.95059 -59.7891,0.35742 -17.0229,-2.98503 -40.5935,13.24462 -57.8906,7.93359 -18.9247,-5.81072 -38.8607,-3.87775 -45.0645,2.27539 -6.8799,6.82371 -13.3988,12.92648 -17.7969,11.41407 -22.7659,-7.82869 -35.8749,7.84661 -52.8418,0.13671 -7.1953,-3.26963 -25.8451,-10.53564 -48.8457,-8.97851 -4.8255,0.32655 -7.8901,4.55351 -13.0332,5.77539 -3.7757,0.89699 -9.5714,-1.44527 -13.457,0.0449 -9.6886,3.71565 -20.3433,9.43681 -31.5703,8.11719 -35.8569,-4.2147 -62.7366,19.72045 -88.6445,19.98437 -10.202,0.10394 -22.905,0.18862 -37.1739,10.61524 -21.2079,15.49689 -54.5076,13.13946 -86.0586,13.03711 -21.1265,-0.0684 -40.4666,12.41463 -61.1875,11.94922 -25.1301,-0.56448 -51.2365,-10.51146 -74.8046,-2.94141 -48.2235,15.48931 -105.3755,24.24 -132.7051,27.84766 -66.9295,3.69131 -145.97339,8.92213 -202.08023,4.94433 -53.89404,-3.82091 -107.1116,1.62843 -161.60144,-4.94433 -13.84945,-1.75747 -31.49278,-4.96484 -49.08984,-10.88672 -27.20719,-9.15595 -64.71131,9.17757 -92.47731,4.46507 -28.72479,-4.87525 -53.17897,-8.12372 -62.2832,-13.63477 -34.50698,-20.88801 -75.95025,-5.4325 -89.32422,-11.7832 -13.1449,-6.24189 -43.72414,-5.83368 -74.28907,-9.7207 -23.02529,-2.92819 -48.68764,13.34436 -66.43495,16.2413 -17.64158,2.87969 -36.03331,4.53609 -56.5625,-1.58399 -10.94048,-3.26154 -21.19608,-11.7096 -25.79296,-15.98633 -6.04041,-5.61974 -21.60454,4.06293 -30.00586,1.98438 -6.06497,-1.50055 -13.1785,-1.72566 -18.88086,-1.93164 -6.29488,-0.22723 -9.34571,-9.33041 -12.45313,-10.09766 -9.78134,-2.41515 -23.6616,0.82525 -37.179687,-0.46289 C 83.767646,329.71357 70.480485,323.90263 57.644378,325.49543 20.031729,330.16266 0,328.57493 0,328.57493 v 70.28864 H 2021.4922 V 252.08594 c 0,0 -1.8595,-0.12246 -3.1641,-0.13672 z"
       transform="matrix(0.26458333,0,0,0.26458333,-316.37082,49.604894)"
       sodipodi:nodetypes="sssssssssssssssssssscscssssssssscsssccccs" />
  </g>
</svg>
